{"title":"Guardians Of The Galaxy 2014 HDCAM x264 AC3 TiTAN","uid":11295364,"size":2022603603,"categoryP":"video","categoryS":"movies","magnet":"?xt=urn:btih:99e6559d81f79b8e382a493f2e90ba4eb707d42c&amp;dn=Guardians+Of+The+Galaxy+2014+HDCAM+x264+AC3+TiTAN&amp;tr=udp%3A%2F%2Ftracker.openbittorrent.com%3A80&amp;tr=udp%3A%2F%2Fopen.demonii.com%3A1337&amp;tr=udp%3A%2F%2Ftracker.coppersurfer.tk%3A6969&amp;tr=udp%3A%2F%2Fexodus.desync.com%3A6969","seeders":1,"leechers":1,"uploader":"TvTeam","files":3,"time":1414373148,"description":" &lt;a href=&quot;http://www.torrenting.com&quot; rel=&quot;nofollow&quot; target=&quot;_NEW&quot;&gt;http://www.torrenting.com&lt;/a&gt;\n\nSign up is OPEN - for time being. Come and have fun.\n\n\n------------------------------------------------------------------------[IMG]http://i.imgur.com/W1Gdwtm.jpg[/IMG]\n &lt;a href=&quot;\nhttp://www.imdb.com/title/tt2015381/&quot; rel=&quot;nofollow&quot; target=&quot;_NEW&quot;&gt;\nhttp://www.imdb.com/title/tt2015381/&lt;/a&gt;\n\nSource: MP4/JYK \n\nGeneral\n\nFormat                                   : Matroska\nFormat version                           : Version 2\nFile size                                : 1.88 GiB\nDuration                                 : 2h 0mn\nOverall bit rate mode                    : Variable\nOverall bit rate                         : 2 233 Kbps\nEncoded date                             : UTC 2014-10-26 19:41:21\n\nVideo\nID                                       : 1\nFormat                                   : AVC\nFormat/Info                              : Advanced Video Codec\nFormat profile                           : &lt;a class=&quot;__cf_email__&quot; href=&quot;/cdn-cgi/l/email-protection&quot; data-cfemail=&quot;d199b8b6b9919de5ffe0&quot;&gt;[email&amp;#160;protected]&lt;/a&gt;&lt;script cf-hash='f9e31' type=&quot;text/javascript&quot;&gt;\n/* &lt;![CDATA[ */!function(){try{var t=&quot;currentScript&quot;in document?document.currentScript:function(){for(var t=document.getElementsByTagName(&quot;script&quot;),e=t.length;e--;)if(t[e].getAttribute(&quot;cf-hash&quot;))return t[e]}();if(t&amp;&amp;t.previousSibling){var e,r,n,i,c=t.previousSibling,a=c.getAttribute(&quot;data-cfemail&quot;);if(a){for(e=&quot;&quot;,r=parseInt(a.substr(0,2),16),n=2;a.length-n;n+=2)i=parseInt(a.substr(n,2),16)^r,e+=String.fromCharCode(i);e=document.createTextNode(e),c.parentNode.replaceChild(e,c)}}}catch(u){}}();/* ]]&gt; */&lt;/script&gt;\nFormat settings, CABAC                   : Yes\nFormat settings, ReFrames                : 3 frames\nCodec ID                                 : V_MPEG4/ISO/AVC\nDuration                                 : 2h 0mn\nBit rate mode                            : Variable\nBit rate                                 : 1 933 Kbps\nMaximum bit rate                         : 40.0 Mbps\nWidth                                    : 720 pixels\nHeight                                   : 320 pixels\nDisplay aspect ratio                     : 2.25:1\nFrame rate mode                          : Constant\nFrame rate                               : 23.976 fps\nColor space                              : YUV\nChroma subsampling                       : 4:2:0\nBit depth                                : 8 bits\nScan type                                : Progressive\nBits/(Pixel*Frame)                       : 0.350\nStream size                              : 1.63 GiB (87%)\nColor primaries                          : BT.709\nTransfer characteristics                 : BT.709\nMatrix coefficients                      : BT.709\n\nAudio\nID                                       : 2\nFormat                                   : AC-3\nFormat/Info                              : Audio Coding 3\nMode extension                           : CM (complete main)\nFormat settings, Endianness              : Big\nCodec ID                                 : A_AC3\nDuration                                 : 2h 0mn\nBit rate mode                            : Constant\nBit rate                                 : 256 Kbps\nChannel(s)                               : 2 channels\nChannel positions                        : Front: L R\nSampling rate                            : 44.1 KHz\nBit depth                                : 16 bits\nCompression mode                         : Lossy\nStream size                              : 221 MiB (11%)\nDefault                                  : Yes\nForced                                   : No\n\n\n[IMG]http://i.imgur.com/wLYEoe4.png[/IMG]\n[IMG]http://i.imgur.com/pXF9oDY.png[/IMG]\n[IMG]http://i.imgur.com/UuPavGd.png[/IMG]\n[IMG]http://i.imgur.com/8Cxd5Hu.png[/IMG]\n[IMG]http://i.imgur.com/mMwB41Q.png[/IMG]\n[IMG]http://i.imgur.com/wLYEoe4.png[/IMG]\n[IMG]http://i.imgur.com/JcBxUtP.png[/IMG]\n[IMG]http://i.imgur.com/oNqQwuj.png[/IMG]\n[IMG]http://i.imgur.com/LE5pBsy.png[/IMG]","torrent":{"xt":"urn:btih:99e6559d81f79b8e382a493f2e90ba4eb707d42c","amp;dn":"Guardians+Of+The+Galaxy+2014+HDCAM+x264+AC3+TiTAN","amp;tr":["udp%3A%2F%2Ftracker.openbittorrent.com%3A80","udp%3A%2F%2Fopen.demonii.com%3A1337","udp%3A%2F%2Ftracker.coppersurfer.tk%3A6969","udp%3A%2F%2Fexodus.desync.com%3A6969"],"infoHash":"99e6559d81f79b8e382a493f2e90ba4eb707d42c","infoHashBuffer":{"type":"Buffer","data":[153,230,85,157,129,247,155,142,56,42,73,63,46,144,186,78,183,7,212,44]},"announce":[],"urlList":[]}}